<?xml version="1.0" standalone="no"?>
<!DOCTYPE svg PUBLIC "-//W3C//DTD SVG 20010904//EN"
 "http://www.w3.org/TR/2001/REC-SVG-20010904/DTD/svg10.dtd">
<svg version="1.0" xmlns="http://www.w3.org/2000/svg"
 width="700.000000pt" height="700.000000pt" viewBox="0 0 700.000000 700.000000"
 preserveAspectRatio="xMidYMid meet">
<metadata>
Created by potrace 1.11, written by Peter Selinger 2001-2013
</metadata>
<g transform="translate(0.000000,700.000000) scale(0.100000,-0.100000)"
fill="#000000" stroke="none">
<path d="M1628 6855 c-2 -1 -37 -5 -78 -9 -101 -8 -142 -14 -225 -36 -463
-119 -831 -420 -1039 -849 -70 -145 -128 -358 -143 -531 -4 -41 -7 -923 -7
-1960 0 -1939 0 -1942 38 -2108 47 -206 142 -413 267 -583 73 -98 228 -257
314 -320 233 -171 495 -277 760 -306 39 -5 941 -8 2005 -8 2009 0 2000 0 2145
40 28 8 61 16 75 19 42 8 161 54 250 98 220 108 402 256 550 448 169 220 265
449 309 735 18 114 19 220 19 2000 0 1993 0 1983 -47 2178 -37 149 -107 317
-193 457 -81 132 -251 320 -373 411 -33 24 -62 46 -65 49 -3 3 -36 24 -75 47
-146 85 -256 133 -397 172 -70 20 -88 23 -172 36 -21 4 -48 9 -60 12 -19 6
-3852 13 -3858 8z m2262 -1099 c122 -16 331 -58 415 -82 273 -81 429 -151 630
-282 99 -64 284 -202 285 -212 0 -3 -15 -28 -33 -55 -70 -107 -410 -610 -417
-618 -3 -4 -47 22 -97 58 -51 36 -96 65 -102 65 -6 0 -11 5 -11 10 0 6 -5 10
-11 10 -7 0 -35 15 -63 34 -158 104 -481 234 -674 271 -232 44 -473 37 -642
-17 -230 -74 -342 -202 -354 -406 -16 -281 132 -400 690 -551 62 -17 127 -33
145 -36 18 -3 37 -9 42 -12 6 -4 27 -10 46 -14 115 -23 560 -160 776 -239 237
-87 474 -229 611 -368 189 -193 265 -404 259 -727 -2 -82 -5 -159 -8 -170 -3
-11 -8 -42 -11 -70 -8 -59 -39 -168 -69 -245 -84 -213 -232 -395 -442 -545
-95 -68 -171 -109 -340 -185 -107 -47 -328 -103 -495 -125 -25 -3 -61 -8 -80
-10 -123 -16 -421 -22 -555 -11 -146 13 -332 36 -405 51 -14 2 -61 12 -105 21
-442 90 -917 310 -1221 565 l-41 35 63 105 c34 57 89 149 121 203 85 145 82
140 162 273 46 77 78 120 85 116 6 -4 49 -32 96 -64 353 -235 671 -381 985
-453 61 -14 132 -28 159 -31 27 -3 54 -9 59 -12 15 -9 359 -12 408 -3 24 4 63
10 86 14 122 16 286 95 360 174 86 91 125 237 97 368 -17 85 -37 120 -101 183
-104 101 -295 173 -1013 381 -552 160 -792 252 -996 385 -224 146 -370 357
-400 583 -3 26 -8 56 -11 67 -6 28 -4 285 2 315 3 14 8 45 11 70 3 25 10 63
16 85 5 22 11 47 13 55 10 48 52 158 96 245 154 308 438 551 808 691 87 33
255 81 311 89 24 4 47 8 50 10 5 3 51 9 165 21 33 3 62 8 63 9 11 10 484 -6
582 -19z"/>
</g>
</svg>
